<svg width="75" height="87" viewBox="0 0 75 87" fill="none" xmlns="http://www.w3.org/2000/svg">
<g clip-path="url(#clip0)">
<path d="M75 0H0V86.2717H75V0Z" fill="black"/>
<path d="M18.1336 39.8921C18.1336 39.5083 17.9981 39.2147 17.7272 39.0115C17.4562 38.8038 16.9685 38.587 16.264 38.3612C15.5595 38.1309 15.0018 37.9051 14.5909 37.6839C13.4709 37.0787 12.911 36.2636 12.911 35.2385C12.911 34.7056 13.06 34.2315 13.358 33.816C13.6606 33.396 14.0919 33.0686 14.6518 32.8338C15.2163 32.599 15.8485 32.4815 16.5485 32.4815C17.253 32.4815 17.8807 32.6102 18.4316 32.8677C18.9826 33.1205 19.4093 33.4796 19.7119 33.9447C20.019 34.4098 20.1725 34.9382 20.1725 35.5298H18.1404C18.1404 35.0782 17.9981 34.7282 17.7136 34.4798C17.4291 34.2269 17.0294 34.1005 16.5146 34.1005C16.0179 34.1005 15.6318 34.2066 15.3563 34.4189C15.0808 34.6266 14.9431 34.9021 14.9431 35.2453C14.9431 35.5659 15.1034 35.8346 15.424 36.0514C15.7492 36.2681 16.2256 36.4713 16.8533 36.661C18.0094 37.0087 18.8516 37.44 19.38 37.9548C19.9083 38.4696 20.1725 39.1109 20.1725 39.8786C20.1725 40.7321 19.8496 41.4027 19.2039 41.8904C18.5581 42.3736 17.6888 42.6152 16.5959 42.6152C15.8373 42.6152 15.1463 42.4775 14.5231 42.202C13.8999 41.922 13.4235 41.5404 13.0938 41.0572C12.7687 40.574 12.6061 40.0141 12.6061 39.3773H14.6451C14.6451 40.4656 15.2953 41.0098 16.5959 41.0098C17.0791 41.0098 17.4562 40.9127 17.7272 40.7185C17.9981 40.5198 18.1336 40.2444 18.1336 39.8921ZM24.799 42.6152C23.7243 42.6152 22.8482 42.2856 22.1708 41.6262C21.4979 40.9669 21.1615 40.0886 21.1615 38.9912V38.8015C21.1615 38.0654 21.3037 37.4084 21.5882 36.8304C21.8727 36.2478 22.2747 35.8007 22.794 35.4891C23.3178 35.173 23.9139 35.015 24.5823 35.015C25.5848 35.015 26.3728 35.3311 26.9464 35.9633C27.5244 36.5955 27.8134 37.4919 27.8134 38.6525V39.4518H23.1462C23.2095 39.9305 23.3991 40.3144 23.7152 40.6034C24.0359 40.8924 24.44 41.0369 24.9278 41.0369C25.6819 41.0369 26.2712 40.7637 26.6957 40.2173L27.6576 41.2943C27.3641 41.7098 26.9667 42.0349 26.4654 42.2697C25.9641 42.5001 25.4087 42.6152 24.799 42.6152ZM24.5755 36.6C24.1871 36.6 23.871 36.731 23.6272 36.9929C23.3878 37.2548 23.2343 37.6297 23.1666 38.1174H25.8896V37.9616C25.8806 37.5281 25.7632 37.1939 25.5374 36.9591C25.3116 36.7197 24.991 36.6 24.5755 36.6ZM33.0496 36.9861C32.7832 36.95 32.5483 36.932 32.3451 36.932C31.6045 36.932 31.119 37.1826 30.8887 37.6839V42.4797H28.9311V35.1504H30.7804L30.8345 36.0243C31.2274 35.3514 31.7716 35.015 32.467 35.015C32.6838 35.015 32.887 35.0443 33.0767 35.103L33.0496 36.9861ZM36.064 42.4797H34.0995V35.1504H36.064V42.4797ZM33.9844 33.2538C33.9844 32.9602 34.0815 32.7186 34.2757 32.529C34.4744 32.3393 34.7431 32.2445 35.0817 32.2445C35.4159 32.2445 35.6824 32.3393 35.8811 32.529C36.0798 32.7186 36.1791 32.9602 36.1791 33.2538C36.1791 33.5518 36.0775 33.7957 35.8743 33.9853C35.6756 34.175 35.4114 34.2698 35.0817 34.2698C34.7521 34.2698 34.4856 34.175 34.2824 33.9853C34.0837 33.7957 33.9844 33.5518 33.9844 33.2538ZM37.3781 38.7473C37.3781 38.0203 37.5181 37.3723 37.7981 36.8033C38.078 36.2343 38.48 35.794 39.0038 35.4824C39.5322 35.1708 40.1441 35.015 40.8395 35.015C41.8285 35.015 42.6346 35.3175 43.2578 35.9227C43.8855 36.5278 44.2355 37.3497 44.3077 38.3883L44.3213 38.8896C44.3213 40.0141 44.0074 40.9172 43.3797 41.5991C42.752 42.2765 41.9098 42.6152 40.8531 42.6152C39.7963 42.6152 38.9519 42.2765 38.3196 41.5991C37.6919 40.9218 37.3781 40.0005 37.3781 38.8354V38.7473ZM39.3357 38.8896C39.3357 39.585 39.4667 40.1179 39.7286 40.4882C39.9905 40.854 40.3653 41.0369 40.8531 41.0369C41.3272 41.0369 41.6975 40.8563 41.964 40.495C42.2304 40.1292 42.3636 39.5467 42.3636 38.7473C42.3636 38.0654 42.2304 37.5371 41.964 37.1623C41.6975 36.7874 41.3227 36.6 40.8395 36.6C40.3608 36.6 39.9905 36.7874 39.7286 37.1623C39.4667 37.5326 39.3357 38.1083 39.3357 38.8896ZM49.9165 41.7346C49.4333 42.3217 48.7649 42.6152 47.9114 42.6152C47.1256 42.6152 46.525 42.3894 46.1096 41.9378C45.6986 41.4862 45.4886 40.8247 45.4796 39.9531V35.1504H47.4372V39.8854C47.4372 40.6485 47.785 41.0301 48.4804 41.0301C49.1442 41.0301 49.6004 40.7998 49.8487 40.3392V35.1504H51.8131V42.4797H49.9707L49.9165 41.7346ZM57.2593 40.4544C57.2593 40.215 57.1396 40.0276 56.9003 39.8921C56.6655 39.7521 56.2861 39.6279 55.7623 39.5196C54.0192 39.1538 53.1476 38.4132 53.1476 37.2977C53.1476 36.6475 53.4163 36.1055 53.9537 35.672C54.4956 35.234 55.2023 35.015 56.0739 35.015C57.0042 35.015 57.747 35.234 58.3025 35.672C58.8625 36.1101 59.1424 36.6791 59.1424 37.379H57.1848C57.1848 37.099 57.0945 36.8687 56.9138 36.6881C56.7332 36.5029 56.451 36.4104 56.0671 36.4104C55.7375 36.4104 55.4823 36.4849 55.3017 36.6339C55.121 36.7829 55.0307 36.9726 55.0307 37.2029C55.0307 37.4197 55.1323 37.5958 55.3355 37.7313C55.5433 37.8622 55.891 37.9774 56.3787 38.0767C56.8664 38.1716 57.2774 38.28 57.6116 38.4019C58.6457 38.7812 59.1628 39.4383 59.1628 40.3731C59.1628 41.0414 58.876 41.5833 58.3025 41.9988C57.729 42.4097 56.9884 42.6152 56.0807 42.6152C55.4665 42.6152 54.9201 42.5068 54.4414 42.2901C53.9672 42.0688 53.5947 41.7685 53.3237 41.3891C53.0528 41.0053 52.9173 40.5921 52.9173 40.1495H54.7733C54.7914 40.4973 54.9201 40.7637 55.1594 40.9488C55.3988 41.134 55.7194 41.2266 56.1213 41.2266C56.4961 41.2266 56.7784 41.1566 56.968 41.0166C57.1622 40.8721 57.2593 40.6847 57.2593 40.4544Z" fill="white"/>
<path d="M15.6747 49.091L18.2081 56.2442L20.728 49.091H23.3969V58.9537H21.3579V56.2577L21.5612 51.6041L18.899 58.9537H17.5036L14.8483 51.6109L15.0515 56.2577V58.9537H13.0193V49.091H15.6747ZM29.4324 58.2086C28.9492 58.7957 28.2808 59.0892 27.4273 59.0892C26.6415 59.0892 26.0409 58.8634 25.6255 58.4118C25.2145 57.9602 25.0045 57.2987 24.9955 56.4271V51.6244H26.9531V56.3594C26.9531 57.1225 27.3009 57.5041 27.9963 57.5041C28.6601 57.5041 29.1162 57.2738 29.3646 56.8132V51.6244H31.329V58.9537H29.4865L29.4324 58.2086ZM36.7752 56.9284C36.7752 56.689 36.6555 56.5016 36.4162 56.3661C36.1814 56.2261 35.802 56.1019 35.2782 55.9936C33.535 55.6278 32.6635 54.8872 32.6635 53.7717C32.6635 53.1215 32.9322 52.5795 33.4696 52.146C34.0115 51.708 34.7182 51.489 35.5898 51.489C36.5201 51.489 37.2629 51.708 37.8184 52.146C38.3783 52.5841 38.6583 53.1531 38.6583 53.853H36.7007C36.7007 53.573 36.6104 53.3427 36.4297 53.1621C36.2491 52.9769 35.9669 52.8844 35.583 52.8844C35.2533 52.8844 34.9982 52.9589 34.8176 53.1079C34.6369 53.2569 34.5466 53.4466 34.5466 53.6769C34.5466 53.8937 34.6482 54.0698 34.8514 54.2053C35.0592 54.3362 35.4069 54.4514 35.8946 54.5507C36.3823 54.6456 36.7933 54.754 37.1274 54.8759C38.1616 55.2552 38.6787 55.9123 38.6787 56.8471C38.6787 57.5154 38.3919 58.0573 37.8184 58.4728C37.2449 58.8837 36.5043 59.0892 35.5966 59.0892C34.9824 59.0892 34.436 58.9808 33.9573 58.7641C33.4831 58.5428 33.1106 58.2425 32.8396 57.8631C32.5686 57.4793 32.4332 57.0661 32.4332 56.6235H34.2892C34.3073 56.9713 34.436 57.2377 34.6753 57.4228C34.9147 57.608 35.2353 57.7006 35.6372 57.7006C36.012 57.7006 36.2943 57.6306 36.4839 57.4906C36.6781 57.3461 36.7752 57.1587 36.7752 56.9284ZM42.0114 58.9537H40.047V51.6244H42.0114V58.9537ZM39.9318 49.7278C39.9318 49.4342 40.0289 49.1926 40.2231 49.003C40.4218 48.8133 40.6905 48.7185 41.0292 48.7185C41.3634 48.7185 41.6298 48.8133 41.8285 49.003C42.0272 49.1926 42.1265 49.4342 42.1265 49.7278C42.1265 50.0258 42.0249 50.2697 41.8217 50.4593C41.623 50.649 41.3588 50.7438 41.0292 50.7438C40.6995 50.7438 40.4331 50.649 40.2299 50.4593C40.0312 50.2697 39.9318 50.0258 39.9318 49.7278ZM46.6786 57.5109C47.0398 57.5109 47.3334 57.4116 47.5592 57.2129C47.785 57.0142 47.9024 56.75 47.9114 56.4203H49.7471C49.7426 56.9171 49.6071 57.3732 49.3407 57.7886C49.0742 58.1996 48.7085 58.5202 48.2433 58.7505C47.7827 58.9763 47.2724 59.0892 46.7124 59.0892C45.6647 59.0892 44.8383 58.7573 44.2332 58.0935C43.6281 57.4251 43.3255 56.5039 43.3255 55.3297V55.201C43.3255 54.0721 43.6258 53.1711 44.2264 52.4983C44.827 51.8254 45.6512 51.489 46.6989 51.489C47.6156 51.489 48.3494 51.7509 48.9004 52.2747C49.4558 52.7941 49.7381 53.4872 49.7471 54.3543H47.9114C47.9024 53.975 47.785 53.6679 47.5592 53.4331C47.3334 53.1937 47.0353 53.074 46.665 53.074C46.2089 53.074 45.8634 53.2411 45.6286 53.5753C45.3983 53.905 45.2832 54.4424 45.2832 55.1875V55.3907C45.2832 56.1448 45.3983 56.6868 45.6286 57.0164C45.8589 57.3461 46.2089 57.5109 46.6786 57.5109Z" fill="white"/>
<path d="M18.9532 71.1534H15.0515V73.7952H19.6306V75.4277H13.0193V65.565H19.6171V67.2111H15.0515V69.5616H18.9532V71.1534ZM23.2614 73.0366L24.6229 68.0984H26.6686L24.1962 75.4277H22.3266L19.8541 68.0984H21.8998L23.2614 73.0366ZM30.8142 75.5632C29.7394 75.5632 28.8634 75.2336 28.186 74.5742C27.5131 73.9149 27.1767 73.0366 27.1767 71.9392V71.7495C27.1767 71.0134 27.3189 70.3564 27.6034 69.7783C27.8879 69.1958 28.2898 68.7487 28.8092 68.4371C29.333 68.121 29.9291 67.963 30.5975 67.963C31.6 67.963 32.388 68.2791 32.9615 68.9113C33.5396 69.5435 33.8286 70.4399 33.8286 71.6005V72.3998H29.1614C29.2246 72.8785 29.4143 73.2624 29.7304 73.5514C30.051 73.8404 30.4552 73.9849 30.9429 73.9849C31.6971 73.9849 32.2864 73.7117 32.7109 73.1653L33.6728 74.2423C33.3793 74.6578 32.9819 74.9829 32.4806 75.2177C31.9793 75.4481 31.4239 75.5632 30.8142 75.5632ZM30.5907 69.548C30.2023 69.548 29.8862 69.679 29.6423 69.9409C29.403 70.2028 29.2495 70.5777 29.1817 71.0654H31.9048V70.9096C31.8958 70.4761 31.7784 70.1419 31.5526 69.9071C31.3268 69.6677 31.0061 69.548 30.5907 69.548ZM36.7481 68.0984L36.8091 68.9452C37.3329 68.2904 38.0351 67.963 38.9157 67.963C39.6925 67.963 40.2705 68.191 40.6498 68.6471C41.0292 69.1032 41.2234 69.7851 41.2324 70.6928V75.4277H39.2748V70.7402C39.2748 70.3248 39.1844 70.0245 39.0038 69.8393C38.8232 69.6496 38.5229 69.5548 38.1029 69.5548C37.5519 69.5548 37.1387 69.7896 36.8633 70.2593V75.4277H34.9056V68.0984H36.7481ZM45.0664 66.2966V68.0984H46.3196V69.5345H45.0664V73.1924C45.0664 73.4633 45.1183 73.6575 45.2222 73.7749C45.3261 73.8923 45.5248 73.951 45.8183 73.951C46.035 73.951 46.227 73.9352 46.3941 73.9036V75.3871C46.0102 75.5045 45.6151 75.5632 45.2086 75.5632C43.8358 75.5632 43.1358 74.87 43.1087 73.4836V69.5345H42.0385V68.0984H43.1087V66.2966H45.0664ZM51.3796 73.4024C51.3796 73.163 51.2599 72.9756 51.0206 72.8401C50.7858 72.7001 50.4064 72.5759 49.8826 72.4676C48.1395 72.1018 47.2679 71.3612 47.2679 70.2457C47.2679 69.5955 47.5366 69.0535 48.074 68.62C48.6159 68.182 49.3226 67.963 50.1942 67.963C51.1245 67.963 51.8673 68.182 52.4228 68.62C52.9828 69.0581 53.2627 69.6271 53.2627 70.327H51.3051C51.3051 70.047 51.2148 69.8167 51.0341 69.6361C50.8535 69.4509 50.5713 69.3584 50.1874 69.3584C49.8578 69.3584 49.6026 69.4329 49.422 69.5819C49.2413 69.7309 49.151 69.9206 49.151 70.1509C49.151 70.3677 49.2526 70.5438 49.4558 70.6793C49.6636 70.8102 50.0113 70.9254 50.499 71.0247C50.9867 71.1196 51.3977 71.228 51.7319 71.3499C52.766 71.7292 53.2831 72.3863 53.2831 73.3211C53.2831 73.9894 52.9963 74.5313 52.4228 74.9468C51.8493 75.3577 51.1087 75.5632 50.201 75.5632C49.5868 75.5632 49.0404 75.4548 48.5617 75.2381C48.0875 75.0168 47.715 74.7165 47.444 74.3371C47.1731 73.9533 47.0376 73.5401 47.0376 73.0975H48.8936C48.9117 73.4453 49.0404 73.7117 49.2797 73.8968C49.5191 74.082 49.8397 74.1746 50.2416 74.1746C50.6164 74.1746 50.8987 74.1046 51.0883 73.9646C51.2825 73.8201 51.3796 73.6327 51.3796 73.4024ZM54.6514 74.4658C54.6514 74.1543 54.7552 73.9014 54.963 73.7072C55.1752 73.513 55.4394 73.4159 55.7555 73.4159C56.0761 73.4159 56.3403 73.513 56.5481 73.7072C56.7603 73.9014 56.8664 74.1543 56.8664 74.4658C56.8664 74.7729 56.7626 75.0236 56.5548 75.2177C56.3471 75.4074 56.0807 75.5022 55.7555 75.5022C55.4349 75.5022 55.1707 75.4074 54.963 75.2177C54.7552 75.0236 54.6514 74.7729 54.6514 74.4658Z" fill="white"/>
<path d="M33.078 25.8815C28.5693 23.9306 33.5549 7.84683 34.1618 6.02602C34.2485 5.72255 34.552 5.5925 34.8555 5.6792C35.1589 5.76591 35.289 6.06937 35.2023 6.37284C33.1214 12.8757 30.7803 23.7139 33.5115 24.8844C33.6416 24.9278 33.7283 24.9278 33.7283 24.8844C34.5954 24.3642 34.9422 20.5058 35.2456 17.3411C35.7225 12.2688 36.156 7.89018 38.367 7.89018C38.7138 7.89018 38.974 8.02024 39.1474 8.237C39.9277 9.0607 39.7977 11.315 39.5809 14.9133C39.4075 17.8179 39.1907 21.3728 39.9277 22.1965C40.1011 22.37 40.2312 22.3266 40.3612 22.2399C40.9248 21.633 40.7514 18.9451 40.578 16.8208C40.3612 13.9595 40.1445 11.4451 41.0982 10.448C41.3584 10.1445 41.7052 10.0145 42.0954 10.0145C42.5722 10.0145 43.0058 10.1879 43.3092 10.5347C44.263 11.5318 44.1763 13.7428 44.1329 15.6937C44.0896 16.5607 44.0462 17.6879 44.1763 18.078C45.0433 17.9046 45.5636 16.3006 45.6503 15.6937C45.6936 15.3902 45.9971 15.2168 46.3006 15.2601C46.604 15.3035 46.7774 15.6069 46.7341 15.9104C46.6907 16.0405 46.1271 19.2052 44.0462 19.2052C43.8295 19.2052 43.6127 19.1185 43.4393 18.9451C42.9624 18.4682 42.9624 17.5145 43.0491 15.6937C43.0925 14.133 43.1792 12.0087 42.5289 11.3584C42.3988 11.2283 42.2688 11.185 42.0954 11.185C42.0086 11.185 41.9219 11.2283 41.8786 11.2717C41.2717 11.922 41.4884 14.6098 41.6618 16.7775C41.8786 19.5954 42.052 22.0665 41.1849 23.0202C40.6647 23.5838 39.711 23.5838 39.1474 23.0202C38.1503 21.9364 38.237 19.1185 38.4971 14.9133C38.6271 12.7457 38.8439 9.40752 38.3237 9.0607C37.1098 9.0607 36.6329 14.1763 36.2861 17.5578C35.8526 22.2399 35.5058 25.1879 34.2052 25.9249C34.0318 26.0116 33.815 26.0983 33.5549 26.0983C33.5115 26.0116 33.2948 25.9682 33.078 25.8815Z" fill="white"/>
</g>
<defs>
<clipPath id="clip0">
<rect width="75" height="86.2717" fill="white"/>
</clipPath>
</defs>
</svg>
